<svg xmlns="http://www.w3.org/2000/svg" version="1.1" xmlns:xlink="http://www.w3.org/1999/xlink" xmlns:svgjs="http://svgjs.dev/svgjs" viewBox="0 0 800 800" opacity="0.1"><g stroke-width="2" stroke="hsl(0, 0%, 100%)" fill="none"><path d="M1926.957656479724 26.58794325730082C2204.364052216748 715.4032116950475 1968.8049743001106 1566.8142097408181 1654.6302393633646 1949.2210437044328C1340.455504426619 2331.6278776680465 1023.9843968115274 2152.13633089208 418.9189287833419 1862.1407462826505C-186.14653924484332 1572.1451616732206 -1229.7174678057424 1227.915777387378 -1249.684007171929 557.2422375791698C-1269.6505465381156 -113.43130222903847 -338.7208067684455 -1246.539266813024 323.0795398256482 -1357.092244796747C984.879886419742 -1467.64522278047 1649.5512607426995 -662.2273251804459 1926.957656479724 26.58794325730082C2204.364052216748 715.4032116950475 1968.8049743001106 1566.8142097408181 1654.6302393633646 1949.2210437044328 "></path><path d="M1899.194796656655 33.37736435290685C2171.557439743915 709.6687188190581 1940.2812541530352 1545.5995169003604 1631.8187871242294 1921.0534993373635C1323.3563200954245 2296.5074817743666 1012.6392326187893 2120.279417667054 418.57495491838927 1835.556480050523C-175.48932278201096 1550.833542433992 -1200.0862344599846 1212.8628742260735 -1219.6897458376952 554.3833987780145C-1239.2932572154057 -104.09607667004434 -325.2895127142749 -1216.602078261594 324.4781003053806 -1325.1450021001583C974.2457133250364 -1433.6879259387229 1626.832153569395 -642.9139901132446 1899.194796656655 33.37736435290685C2171.557439743915 709.6687188190581 1940.2812541530352 1545.5995169003604 1631.8187871242294 1921.0534993373635 "></path><path d="M1871.431936833586 40.16666337819993C2138.750827271082 703.9341038727562 1911.7575340059589 1524.3847019895898 1609.0073348850947 1892.8858328999813C1306.2571357642305 2261.3869638103733 1001.2940684260516 2088.422382371715 418.2309810534364 1808.9720917480822C-164.8321063191786 1529.5218011244501 -1170.455001114227 1197.8098489944564 -1189.695484503461 551.5244379065466C-1208.9359678926955 -94.76097318136317 -311.8582186601043 -1186.6650117804766 325.876660785113 -1293.1978814738823C963.6115402303303 -1399.7307511672882 1604.1130463960899 -623.600777116356 1871.431936833586 40.16666337819993C2138.750827271082 703.9341038727562 1911.7575340059589 1524.3847019895898 1609.0073348850947 1892.8858328999813 "></path><path d="M1843.6690770105174 46.95596240349346C2105.944214798249 698.1994889264543 1883.2338138588834 1503.169887078819 1586.1958826459595 1864.7181664626C1289.157951433036 2226.2664458463805 989.9489042333134 2056.565347076376 417.8870071884837 1782.3877034456423C-154.174889856346 1508.2100598149086 -1140.823767768469 1182.7568237628393 -1159.7012231692272 548.6654770350788C-1178.5786785699854 -85.42586969268177 -298.42692460593366 -1156.727945299359 327.27522126484564 -1261.2507608476062C952.9773671356252 -1365.7735763958535 1581.3939392227853 -604.2875641194671 1843.6690770105174 46.95596240349346C2105.944214798249 698.1994889264543 1883.2338138588834 1503.169887078819 1586.1958826459595 1864.7181664626 "></path><path d="M1815.9061866698703 53.74526142878676C2073.137571807838 692.4648739801519 1854.710063194229 1481.9550721680484 1563.3843998892462 1836.5505000252183C1272.058736584264 2191.1459278823872 978.6037095229976 2024.7083117810366 417.5430028059527 1755.8033151432019C-143.51770391109198 1486.8983185053671 -1111.1925649402892 1167.7037985312218 -1129.7069923525714 545.8065161636105C-1148.2214197648536 -76.09076620400037 -284.99566106934117 -1126.7908788182415 328.67375122700014 -1229.3036402213302C942.3431635233414 -1331.8164016244189 1558.6748015319022 -584.9743511225784 1815.9061866698703 53.74526142878676C2073.137571807838 692.4648739801519 1854.710063194229 1481.9550721680484 1563.3843998892462 1836.5505000252183 "></path><path d="M1788.1433268468013 60.53465200681467C2040.3309593350054 686.7303505865843 1826.186343047153 1460.7403488100126 1540.5729476501115 1808.3829251405705C1254.9595522530694 2156.0255014711292 967.258545330259 1992.8513680384322 417.19902894100005 1729.2190183934963C-132.8604874482594 1465.5866687485604 -1081.5613315945316 1152.6508648523395 -1099.7127310183375 542.9476468448775C-1117.8641304421435 -66.7555711625846 -271.56436701517055 -1096.8537207843897 330.07231170673276 -1197.3564280423197C931.7089904286358 -1297.8591353002498 1535.9556943585976 -565.6610465729551 1788.1433268468013 60.53465200681467C2040.3309593350054 686.7303505865843 1826.186343047153 1460.7403488100126 1540.5729476501115 1808.3829251405705 "></path><path d="M1760.3804670237323 67.3239815496861C2007.5243468621725 680.995766157861 1797.6626229000772 1439.52556441682 1517.7614954109763 1780.2152892207673C1237.8603679218754 2120.905014024715 955.9133811375214 1960.994363260672 416.85505507604694 1702.6346606086345C-122.20327098542703 1444.274957956597 -1051.9300982487737 1137.5978701383006 -1069.7184696841036 540.0887164909877C-1087.5068411194334 -57.42043715632508 -258.1330729609999 -1066.916623785694 331.47087218646516 -1165.4092768984656C921.0748173339307 -1263.901930011237 1513.2365871852926 -546.3478030584882 1760.3804670237323 67.3239815496861C2007.5243468621725 680.995766157861 1797.6626229000772 1439.52556441682 1517.7614954109763 1780.2152892207673 "></path><path d="M1732.6174851303513 74.1132805749794C1974.717612319027 675.2611512115586 1769.1387806826888 1418.3107495060494 1494.9499211015286 1752.0476227833851C1220.761061520369 2085.7844960607213 944.5680948744707 1929.1373279653326 416.5109591407818 1676.050272306194C-111.54617659290716 1422.963216647055 -1022.2989869733283 1122.5448449066835 -1039.724330420182 537.2297556195197C-1057.1496738670357 -48.08533366764368 -244.70190097714203 -1036.9795573045767 332.8693105958853 -1133.4621562721895C910.4405221689121 -1229.9447552398024 1490.5173579416755 -527.0345900615995 1732.6174851303513 74.1132805749794C1974.717612319027 675.2611512115586 1769.1387806826888 1418.3107495060494 1494.9499211015286 1752.0476227833851 "></path><path d="M1704.8547473775948 80.90257960027293C1941.911121916507 669.5265362652567 1740.6151826059258 1397.0959345952792 1472.1385909327064 1723.8799563460038C1203.661999259487 2050.6639780967284 933.2230527520451 1897.2802926699937 416.1671073461414 1649.4658840037537C-100.88883805976229 1401.6514753375136 -992.667631557258 1107.4918196750664 -1009.7299470156356 534.3707947480518C-1026.7922624740133 -38.75023017896228 -231.27048485265868 -1007.042490823459 334.2679931459304 -1101.5150356459135C899.8064711445195 -1195.9875804683677 1467.798372838683 -507.7213770647106 1704.8547473775948 80.90257960027293C1941.911121916507 669.5265362652567 1740.6151826059258 1397.0959345952792 1472.1385909327064 1723.8799563460038 "></path><path d="M1677.0918875545262 87.69184810798811C1909.104509443674 663.7918908013762 1712.0914624588495 1375.88108916693 1449.3271386935712 1695.712259391044C1186.562814928293 2015.5434296151575 921.8778885593074 1865.4232268570759 415.82313348118873 1622.8814651837351C-90.23162159693015 1380.339703510394 -963.0363982115002 1092.4387639258707 -979.7356856814017 531.5118033590056C-996.4349731513032 -29.41515720785901 -217.8391907984883 -977.1054548599197 335.6665536256628 -1069.5679455372153C889.1722980498134 -1162.0304362145112 1445.0792656653784 -488.4081945854 1677.0918875545262 87.69184810798811C1909.104509443674 663.7918908013762 1712.0914624588495 1375.88108916693 1449.3271386935712 1695.712259391044 "></path><path d="M1649.3291192841916 94.48114713328164C1876.2979885235754 658.0572758550743 1683.5678338645084 1354.6662742561598 1426.5157780071704 1667.5445929536622C1169.4637221498328 1980.4229116511651 910.5328159193036 1833.5661915617375 415.4792511689702 1596.2970768812952C-79.57431358136319 1359.0279622008525 -933.405073313008 1077.385738694254 -949.7413327944334 528.652842487538C-966.0775922758588 -20.080053719177613 -204.4078051915833 -947.1683883788023 337.06520565812957 -1037.6208249109393C878.5382165078427 -1128.0732614430763 1422.3602500448078 -469.09498158851125 1649.3291192841916 94.48114713328164C1876.2979885235754 658.0572758550743 1683.5678338645084 1354.6662742561598 1426.5157780071704 1667.5445929536622 "></path><path d="M1621.566259461123 101.27044615857517C1843.491376050742 652.3226609087726 1655.044113717432 1333.4514593453891 1403.7043257680357 1639.3769265162805C1152.3645378186388 1945.3023936871718 899.1876517265655 1801.7091562663986 415.13527730401734 1569.7126885788548C-68.91709711853082 1337.716220891311 -903.7738399672502 1062.332713462637 -919.7470714601995 525.7938816160702C-935.7203029531488 -10.744950230496215 -190.97651113741267 -917.2313218976848 338.4637661378622 -1005.6737042846632C867.9040434131371 -1094.1160866716418 1399.6411428715032 -449.7817685916224 1621.566259461123 101.27044615857517C1843.491376050742 652.3226609087726 1655.044113717432 1333.4514593453891 1403.7043257680357 1639.3769265162805 "></path><path d="M1593.8033996380536 108.05974518386847C1810.684763577909 646.5880459624705 1626.5203935703566 1312.2366444346185 1380.8928735289005 1611.2092600788988C1135.2653534874444 1910.1818757231786 887.8424875338278 1769.8521209710593 414.79130343906445 1543.1283002764144C-58.25988065569845 1316.4044795817695 -874.1426066214924 1047.2796882310195 -889.7528101259655 522.9349207446026C-905.3630136304387 -1.4098467418150449 -177.54521708324205 -887.2942554165672 339.8623266175948 -973.7265836583872C857.2698703184315 -1060.158911900207 1376.9220356981982 -430.46855559473363 1593.8033996380536 108.05974518386847C1810.684763577909 646.5880459624705 1626.5203935703566 1312.2366444346185 1380.8928735289005 1611.2092600788988 "></path><path d="M1566.040539814985 114.84904420916178C1777.878151105076 640.8534310161685 1597.9966734232803 1291.0218295238483 1358.0814212897653 1583.041593641517C1118.1661691562504 1875.0613577591857 876.4973233410897 1737.995085675721 414.4473295741118 1516.5439119739744C-47.60266419286609 1295.092738272228 -844.5113732757345 1032.2266629994028 -859.7585487917315 520.0759598731345C-875.0057243077287 7.92525674686658 -164.11392302907143 -857.3571889354498 341.26088709732744 -941.779463032111C846.6356972237261 -1026.2017371287723 1354.2029285248937 -411.15534259784476 1566.040539814985 114.84904420916178C1777.878151105076 640.8534310161685 1597.9966734232803 1291.0218295238483 1358.0814212897653 1583.041593641517 "></path><path d="M1538.2773137809786 121.63834323445508C1745.071172421306 635.1188160698662 1569.4725870652674 1269.8070146130772 1335.269602839693 1554.8739272041348C1101.0666186141189 1839.940839795193 865.1517929374143 1706.1380503803812 414.10298949822163 1489.959523671534C-36.94581394097122 1273.7809969626865 -814.8805061409142 1017.1736377677853 -829.7646536684351 517.2169990016664C-844.6488011959561 17.260360235547978 -150.6829951858383 -827.4201224543324 342.65908136612234 -909.832342405835C836.001157918083 -992.2445623573376 1331.4834551406516 -391.842129600956 1538.2773137809786 121.63834323445508C1745.071172421306 635.1188160698662 1569.4725870652674 1269.8070146130772 1335.269602839693 1554.8739272041348 "></path><path d="M1510.514667580957 128.4276422597486C1712.26477357152 629.3842011235645 1540.9490805412383 1248.592199702307 1312.4583642236048 1526.7062607667535C1083.9676479059713 1804.8203218312 853.8068423677232 1674.2810150850428 413.7592292563154 1463.375135369094C-26.28838385509198 1252.469255653145 -785.2490591721096 1002.1206125361687 -799.7701787111544 514.3580381301988C-814.2912982501991 26.595463724229376 -137.2514875086208 -797.4830559732148 344.05785546890183 -877.8852217795588C825.3671984464245 -958.2873875859029 1308.7645615903934 -372.52891660406726 1510.514667580957 128.4276422597486C1712.26477357152 629.3842011235645 1540.9490805412383 1248.592199702307 1312.4583642236048 1526.7062607667535 "></path><path d="M1482.751807757888 135.21694128504214C1679.458161098687 623.6495861772626 1512.4253603941625 1227.3773847915368 1289.6469119844696 1498.5385943293718C1066.8684635747768 1769.6998038672077 842.4616781749849 1642.423979789704 413.41525539136273 1436.7907470666537C-15.631167392259613 1231.157514343604 -755.6178258263517 987.0675873045516 -769.7759173769205 511.49907725873095C-783.9340089274891 35.93056721291077 -123.8201934544503 -767.5459894920973 345.45641594863423 -845.9381011532828C814.7330253517189 -924.3302128144683 1286.0454544170889 -353.2157036071784 1482.751807757888 135.21694128504214C1679.458161098687 623.6495861772626 1512.4253603941625 1227.3773847915368 1289.6469119844696 1498.5385943293718 "></path><path d="M1454.9889479348194 142.00624031033544C1646.651548625854 617.9149712309604 1483.9016402470866 1206.1625698807657 1266.835459745335 1470.37092789199C1049.7692792435828 1734.579285903214 831.1165139822469 1610.5669444943646 413.07128152640985 1410.2063587642133C-4.973950929427247 1209.845773034062 -725.9865924805939 972.0145620729345 -739.7816560426866 508.6401163872631C-753.5767196047791 45.265670701591716 -110.38889940027968 -737.6089230109799 346.85497642836685 -813.9909805270067C804.0988522570133 -890.3730380430336 1263.3263472437839 -333.90249061028976 1454.9889479348194 142.00624031033544C1646.651548625854 617.9149712309604 1483.9016402470866 1206.1625698807657 1266.835459745335 1470.37092789199 "></path><path d="M1427.22608811175 148.79553933562875C1613.844936153021 612.1803562846585 1455.3779201000107 1184.947754969995 1244.0240075061997 1442.2032614546083C1032.6700949123888 1699.4587679392216 819.771349789509 1578.7099091990258 412.7273076614572 1383.6219704617733C5.68326553340512 1188.5340317245204 -696.3553591348361 956.961536841317 -709.7873947084526 505.78115551579526C-723.219430282069 54.60077419027357 -96.95760534610906 -707.6718565298625 348.25353690809925 -782.0438599007307C793.4646791623077 -856.4158632715989 1240.6072400704797 -314.5892776134009 1427.22608811175 148.79553933562875C1613.844936153021 612.1803562846585 1455.3779201000107 1184.947754969995 1244.0240075061997 1442.2032614546083 "></path><path d="M1399.4632282886814 155.58496043123478C1581.0383236801886 606.4458634086689 1426.8541999529348 1163.7330621295368 1221.2125552670645 1414.0357170875386C1015.5709105811945 1664.3383720455408 808.4261855967711 1546.852995973999 412.3833337965043 1357.0377042296454C16.340481996237486 1167.222412485291 -666.7241257890782 941.9086336800124 -679.7931333742185 502.9223167146397C-692.862140959359 63.93599974926724 -83.52631129193844 -677.7346679784324 349.6520973878319 -750.0966172041421C782.8305060676023 -822.4585664298518 1217.8881328971747 -295.27594254619953 1399.4632282886814 155.58496043123478C1581.0383236801886 606.4458634086689 1426.8541999529348 1163.7330621295368 1221.2125552670645 1414.0357170875386 "></path><path d="M1371.7003684656124 162.37425945652808C1548.2317112073556 600.7112484623669 1398.3304798058589 1142.5182472187666 1198.4011030279298 1385.8680506501573C998.4717262500003 1629.2178540815485 797.081021404033 1514.9959606786606 412.0393599315514 1330.453315927205C26.997698459069852 1145.91067117575 -637.0928924433205 926.8556084483953 -649.7988720399846 500.0633558431721C-662.5048516366489 73.27110323794864 -70.09501723776782 -647.7976014973149 351.0506578675645 -718.149496577866C772.1963329728967 -788.5013916584171 1195.1690257238697 -275.9627295493108 1371.7003684656124 162.37425945652808C1548.2317112073556 600.7112484623669 1398.3304798058589 1142.5182472187666 1198.4011030279298 1385.8680506501573 "></path><path d="M1343.9374781249653 169.16352796424349C1515.4250682169445 594.9766029984869 1369.8067291412049 1121.3034017904179 1175.5896202712165 1357.700353695198C981.3725114012279 1594.0973055999775 785.735826693717 1483.1388948657436 411.6953555490204 1303.868897107187C37.65488440432409 1124.5988993486303 -607.4616896151408 911.8025526992003 -619.8046412233289 497.2043644541261C-632.1475928315169 82.60617620905191 -56.66375370117544 -617.8605655337756 352.449187829719 -686.202406469168C761.562129360613 -754.5442474045606 1172.4498880329866 -256.64954707000004 1343.9374781249653 169.16352796424349C1515.4250682169445 594.9766029984869 1369.8067291412049 1121.3034017904179 1175.5896202712165 1357.700353695198 "></path><path d="M1316.1747098546311 175.9528269895368C1482.618547296846 589.2419880521848 1341.2831005468634 1100.0885868796472 1152.7782595848157 1329.5326872578157C964.2734186227681 1558.9767876359842 774.3907540537132 1451.2818595704043 411.3514732368021 1277.2845088047466C48.312192419890835 1103.2871580390884 -577.8303647166485 896.7495274675832 -589.8102883363606 494.34540358265804C-601.7902119560725 91.94127969773308 -43.23236809427044 -587.9234990526581 353.84783986218577 -654.2552858428919C750.928047818642 -720.5870726331258 1149.7308724124168 -237.3363340731114 1316.1747098546311 175.9528269895368C1482.618547296846 589.2419880521848 1341.2831005468634 1100.0885868796472 1152.7782595848157 1329.5326872578157 "></path><path d="M1288.41172796125 182.74212601483032C1449.8118127537 583.5073731058828 1312.759258329475 1078.873771968877 1129.9666852753683 1301.365020820434C947.1741122212613 1523.8562696719914 763.0454677906628 1419.4248242750655 411.00737730153674 1250.7001205023062C58.969286812410814 1081.9754167295469 -548.1992534412033 881.6965022359659 -559.8161490724391 491.4864427111902C-571.433044703675 101.27638318641448 -29.80119611041232 -557.9864325715406 355.24627827160566 -622.3081652166159C740.2937526536239 -686.6298978616911 1127.011643168799 -218.02312107622254 1288.41172796125 182.74212601483032C1449.8118127537 583.5073731058828 1312.759258329475 1078.873771968877 1129.9666852753683 1301.365020820434 "></path><path d="M1260.6488681381811 189.53145555770152C1417.005200280867 577.772788677159 1284.235538182399 1057.6589875756845 1107.1552330362333 1273.1973849006308C930.0749278900671 1488.7357822255767 751.7003035979249 1387.5678194973043 410.66340343658385 1224.1157627174443C69.62650327524318 1060.6637059375837 -518.5680200954455 866.643507521927 -529.8218877382052 488.6275123573005C-541.0757553809649 110.611517192674 -16.3699020562417 -528.0493355728449 356.6448387513383 -590.3610140727617C729.6595795589183 -652.6726925726783 1104.2925359954945 -198.70987756175555 1260.6488681381811 189.53145555770152C1417.005200280867 577.772788677159 1284.235538182399 1057.6589875756845 1107.1552330362333 1273.1973849006308 "></path><path d="M1232.8860083151121 196.32072406541693C1384.198587808035 572.0381432132788 1255.7118180353232 1036.4441421473355 1084.3437807970981 1245.029687945671C912.9757435588729 1453.6152337440058 740.3551394051867 1355.7107536843878 410.3194295716312 1197.5313438974258C80.28371973807555 1039.3519341104643 -488.93678674968766 851.5904517727317 -499.82762640397124 485.76852096825473C-510.7184660582548 119.94659016377727 -2.938608002071078 -498.11229960930564 358.0433992310709 -558.4139239640638C719.0254064642129 -618.7155483188217 1081.5734288221897 -179.39669508244492 1232.8860083151121 196.32072406541693C1384.198587808035 572.0381432132788 1255.7118180353232 1036.4441421473355 1084.3437807970981 1245.029687945671 "></path><path d="M1205.1231790096213 203.11002309071046C1351.3920058527797 566.3035282669769 1227.1881284058256 1015.229327236565 1061.532359075541 1216.8620215082888C895.876589745257 1418.4947157800125 729.0100057300269 1323.8537183890485 409.97548622425643 1170.9469555949854C90.94096671848604 1018.0401928009228 -459.3055228863517 836.5374265411147 -469.83333455215916 482.90956009678666C-480.3611462179667 129.28169365245878 10.492716569677555 -468.17523312818815 359.44199022838166 -526.4668033377876C708.3912638870854 -584.758373547387 1058.854352166463 -160.08348208555617 1205.1231790096213 203.11002309071046C1351.3920058527797 566.3035282669769 1227.1881284058256 1015.229327236565 1061.532359075541 1216.8620215082888 "></path><path d="M1177.3603191865525 209.89944418631626C1318.5853933799467 560.5690353909872 1198.6644082587495 994.0146343961069 1038.7209068364061 1188.6944771412195C878.7774054140627 1383.3743198863322 717.6648415372888 1291.9968051640217 409.63151235930377 1144.3626893628577C101.5981831813184 996.7285735616933 -429.67428954059386 821.4845233798101 -439.83907321792526 480.0507212956313C-450.0038568952566 138.61691921145257 23.924010623848176 -438.23804457675817 360.84055070811405 -494.51956064119906C697.7570907923798 -550.8010767056398 1036.1352449931583 -140.77014701835492 1177.3603191865525 209.89944418631626C1318.5853933799467 560.5690353909872 1198.6644082587495 994.0146343961069 1038.7209068364061 1188.6944771412195 "></path><path d="M1149.5974593634837 216.68862114129706C1285.7787809071137 554.8342983743728 1170.1406881116739 972.799697415024 1015.909454597271 1160.5266886335255C861.6782210828685 1348.2536798520268 706.3196773445509 1260.1396477983708 409.2875384943509 1117.7781789901053C112.25539964415077 975.4167101818398 -400.043056194836 806.4313760778805 -409.8448118836913 477.191638353851C-419.64656757254653 147.95190062982158 37.3553046780188 -408.30110016595324 362.23911118784645 -462.57256208523546C687.1229176976744 -516.8440240045177 1013.4161378198537 -121.45705609177855 1149.5974593634837 216.68862114129706C1285.7787809071137 554.8342983743728 1170.1406881116739 972.799697415024 1015.909454597271 1160.5266886335255 "></path><path d="M1121.8344164349462 223.47798120174673C1252.971985328812 549.0997444632271 1141.6167848591292 951.5849435394096 993.0978192526673 1132.3590832313C844.5788536462055 1313.1332229231903 694.9743300463442 1228.282673538188 408.9433815239295 1091.1938517228211C122.9124330015145 954.1050299074543 -370.412005954547 791.3784118814197 -379.8507336549261 474.3327385175394C-389.28946135530526 157.2870651536591 50.78641562672067 -378.3639726496795 363.6374885621103 -430.6253804238031C676.4885614975001 -482.88678819792676 990.6968475410802 -102.14378205973355 1121.8344164349462 223.47798120174673C1252.971985328812 549.0997444632271 1141.6167848591292 951.5849435394096 993.0978192526673 1132.3590832313 "></path><path d="M1094.071739717346 230.2672191918839C1220.165555961448 543.3650684817687 1113.0932478175218 930.3700675934829 970.286550119001 1104.1913557587618C827.47985242048 1278.0126439240412 683.6293489590748 1196.4255772076926 408.59959076444534 1064.6094023852247C133.56983256981562 932.7932275627568 -340.7805895033204 776.3253256146463 -349.8562892152234 471.4737166109153C-358.93198892712644 166.62210760718426 64.21789278636004 -348.4269672037183 365.0362321473117 -398.6783208326833C665.8545715082632 -448.92967446164835 967.9779234732441 -82.83063009800094 1094.071739717346 230.2672191918839C1220.165555961448 543.3650684817687 1113.0932478175218 930.3700675934829 970.286550119001 1104.1913557587618 "></path><path d="M1066.3087883415428 237.05657925233345C1187.3588519358807 537.6305145706231 1084.5694361177116 909.1553137178685 947.4750063271315 1076.0237503565363C810.3805765365516 1242.8921869952044 672.2840932136025 1164.56860294751 408.2555253467581 1038.0250751179408C144.2269574799136 911.4815472883713 -311.14944771029695 761.2723614181855 -319.8621194337239 468.6148167746037C-328.57479115715074 175.9572721310219 77.64909528779617 -318.48983968744454 366.43470107430994 -366.73113917125096C655.2203068608233 -414.97243865505743 945.258724747205 -63.51735606595594 1066.3087883415428 237.05657925233345C1187.3588519358807 537.6305145706231 1084.5694361177116 909.1553137178685 947.4750063271315 1076.0237503565363 "></path><path d="M1038.5459895536303 243.84587827762687C1154.5523004982042 531.8958996243209 1056.045777005792 887.9404988070978 924.6636151231528 1047.8560839191548C793.2814532405137 1207.7716690312116 660.9389900560209 1132.7115676521707 407.91161251696167 1011.4406868155004C154.8842349779021 890.1698059788298 -281.5181533293829 746.2193361865682 -289.8677970643337 465.7558559031356C-298.2174407992844 185.2923756197033 91.08045037712304 -288.55277320632706 367.8333225891986 -334.7840185449749C644.5861948012739 -381.0152638836227 922.5396786090564 -44.204143069067186 1038.5459895536303 243.84587827762687C1154.5523004982042 531.8958996243209 1056.045777005792 887.9404988070978 924.6636151231528 1047.8560839191548 "></path><path d="M1010.7831297305615 250.63520782049852C1121.745688025371 526.1613151955971 1027.522056858716 866.7257144139055 901.8521628840178 1019.6884479993512C776.1822689093194 1172.6511815847969 649.5938258632827 1100.8545628744102 407.56763865200867 984.8563290306383C165.5414514407346 868.8580951868664 -251.8869199836251 731.1663414725294 -259.8735357300997 462.89692554924613C-267.8601514765744 194.62750962596283 104.51174443129366 -258.61567620763145 369.2318830689311 -302.8368674011207C633.9520217065685 -347.0580585946099 899.8205714357516 -24.89089955460031 1010.7831297305615 250.63520782049852C1121.745688025371 526.1613151955971 1027.522056858716 866.7257144139055 901.8521628840178 1019.6884479993512 "></path><path d="M983.0202088723363 257.4245068457918C1088.9390145173818 520.4267002492952 998.9982756764839 845.5108995031351 879.0406496097264 991.5207815619694C759.0830235429689 1137.5306636208038 638.2486006353886 1068.9975275790714 407.22360375189965 958.2719407281982C176.1986068684107 847.5463538773249 -222.2557476730235 716.1133162409124 -229.87933543102207 460.0379646777783C-237.50292318902058 203.96261311464423 117.94297745030804 -228.67860972651397 370.63038251350747 -270.8897467748446C623.3177875767069 -313.10088382317525 877.1014032272906 -5.577686557711445 983.0202088723363 257.4245068457918C1088.9390145173818 520.4267002492952 998.9982756764839 845.5108995031351 879.0406496097264 991.5207815619694 "></path><path d="M955.2573490492675 264.21383638866337C1056.132402044549 514.6921158205714 970.4745555294082 824.2961151099425 856.2291973705915 963.3531456421658C741.9838392117747 1102.410176174389 626.9034364426507 1037.1405228013105 406.87962988694676 931.6875829433361C186.85582333124307 826.2346430853615 -192.62451432726573 701.0603215268734 -199.88507409678812 457.1790343238886C-207.1456338663105 213.29774712090375 131.37427150447866 -198.74151272781836 372.02894299324 -238.9425956309904C612.6836144820013 -279.1436785341624 854.3822960539858 13.735556956755431 955.2573490492675 264.21383638866337C1056.132402044549 514.6921158205714 970.4745555294082 824.2961151099425 856.2291973705915 963.3531456421658 "></path><path d="M927.4944892261988 271.0031354139568C1023.3257895717161 508.9575008742693 941.9508353823323 803.0813001991719 833.4177451314565 935.1854792047841C724.8846548805805 1067.289658210396 615.5582722499125 1005.2834875059714 406.535656021994 905.1031946408957C197.51303979407544 804.92290177582 -162.9932809815079 686.0072962952563 -169.89081276255416 454.3200734524206C-176.7883445436005 222.63285060958492 144.80556555864928 -168.80444624670088 373.4275034729725 -206.9954750047143C602.0494413872957 -245.18650376272774 831.663188880681 33.04876995364418 927.4944892261988 271.0031354139568C1023.3257895717161 508.9575008742693 941.9508353823323 803.0813001991719 833.4177451314565 935.1854792047841 "></path><path d="M899.7315988855516 277.7924039216721C990.5191465813052 503.222855410389 913.4270847176783 781.8664547708231 810.6062623747432 907.017782249824C707.7854400318083 1032.169109728825 604.2130775395965 973.4264216930542 406.1916516394631 878.5187758208774C208.17022573932968 783.6111299487002 -133.36207815332818 670.9542405460609 -139.8965819458984 451.46108206337453C-146.43108573846854 231.9679235806883 158.23682909524177 -138.86741028316152 374.8260334351269 -175.04838489601633C591.415237775012 -211.2293595088712 808.9440511897983 52.36195243295492 899.7315988855516 277.7924039216721C990.5191465813052 503.222855410389 913.4270847176783 781.8664547708231 810.6062623747432 907.017782249824 "></path><path d="M871.9687390624827 284.5817029469655C957.7125341084723 497.4882404640872 884.9033645706024 760.6516398600527 787.7948101356083 878.8501158124427C690.6862557006139 997.0485917648325 592.8679133468586 941.5693863977156 405.8476777745102 851.9343875184372C218.82744220216205 762.2993886391589 -103.7308448075704 655.901215314444 -109.90232061166444 448.6021211919068C-116.07379641575847 241.3030270693697 171.66812314941228 -108.93034380204404 376.2245939148595 -143.10126426974028C580.7810646803064 -177.27218473743648 786.2249440164933 71.67516542984367 871.9687390624827 284.5817029469655C957.7125341084723 497.4882404640872 884.9033645706024 760.6516398600527 787.7948101356083 878.8501158124427 "></path><path d="M844.2058792394141 291.37106300741516C924.9059216356391 491.7536865529414 856.3796444235265 739.4368859844385 764.9833578964731 850.682510410217C673.5870713694198 961.9281348359957 581.5227491541204 909.7124121375327 405.50370390955743 825.3500602511531C229.4846586649944 740.9877083647734 -74.09961146181257 640.848251117983 -79.90805927743048 445.7432213555951C-85.71650709304839 250.63819159320724 185.0994172035829 -78.9932162857703 377.6231543945919 -111.15408260830793C570.146891585601 -143.31494893084556 763.5058368431887 90.98843946188867 844.2058792394141 291.37106300741516C924.9059216356391 491.7536865529414 856.3796444235265 739.4368859844385 764.9833578964731 850.682510410217 "></path><path d="M816.4430194163451 298.1603925502866C892.0993091628065 486.0191021242175 827.8559242764507 718.222101591246 742.1719056573381 822.5148744904136C656.4878870382254 926.807647389581 570.1775849613824 877.855407359772 405.15973004460466 798.765702466291C240.14187512782678 719.6759975728103 -44.46837811605474 625.795256403944 -49.91379794319653 442.8842910017055C-55.359217770338375 259.97332559946676 198.53071125775352 -49.056119287074694 379.0217148743245 -79.2069314644537C559.5127184908955 -109.35774364183277 740.7867296698839 110.30168297635566 816.4430194163451 298.1603925502866C892.0993091628065 486.0191021242175 827.8559242764507 718.222101591246 742.1719056573381 822.5148744904136 "></path><path d="M788.6801595932761 304.94969157558C859.2926966899734 480.2844871779155 799.3322041293748 697.0072866804753 719.3604534182032 794.3472080530316C639.3887027070314 891.687129425588 558.8324207686444 845.9983720644327 404.8157561796519 772.1813141638509C250.79909159065915 698.3642562632685 -14.837144770296959 610.7422311723269 -19.91953660896263 440.02533013023753C-25.001928447628302 269.30842908814816 211.96200531192403 -19.11905280595721 380.420275354057 -47.25981083817766C548.8785453961899 -75.40056887039805 718.0676224965791 129.61489597324442 788.6801595932761 304.94969157558C859.2926966899734 480.2844871779155 799.3322041293748 697.0072866804753 719.3604534182032 794.3472080530316 "></path><path d="M760.9172082174732 311.7389906008734C826.485992664406 474.54987223161356 770.8083924295647 675.7924717697047 696.5489096263336 766.1795416156501C622.2894268231028 856.5666114615951 547.4871650231721 814.1413367690939 404.47169076196474 745.5969258614105C261.45621650075725 677.052514953727 14.7939970227265 595.6892059407098 10.074633172536949 437.1663692587697C5.355269322347397 278.64353257682956 225.39320781336028 10.818013675160273 381.81874428105516 -15.312690211901554C538.24428074875 -41.44339409896338 695.3484237705402 148.92810897013322 760.9172082174732 311.7389906008734C826.485992664406 474.54987223161356 770.8083924295647 675.7924717697047 696.5489096263336 766.1795416156501 "></path><path d="M733.1543483944042 318.5282896261667C793.6793801915733 468.81525728531153 742.2846722824886 654.5776568589342 673.7374573871986 738.0118751782682C605.1902424919086 821.4460934976023 536.1420008304341 782.284301473755 404.12771689701185 719.0125375589705C272.1134329635896 655.7407736441857 44.425230368484335 580.6361807090927 40.0688945067709 434.30740838730185C35.71255864505741 287.97863606551095 238.8245018675309 40.75508015627776 383.2173047607878 16.634430414374492C527.6101076540444 -7.486219327528715 672.6293165972353 168.24132196702203 733.1543483944042 318.5282896261667C793.6793801915733 468.81525728531153 742.2846722824886 654.5776568589342 673.7374573871986 738.0118751782682 "></path><path d="M705.3915496064917 325.31758865146026C760.8728287538966 463.0806423390095 713.761013170569 633.3628419481637 650.9260661832199 709.8442087408865C588.0911191958706 786.3255755336095 524.7968976728523 750.4272661784162 403.7838040672152 692.4281492565301C282.77071046157823 634.4290323346441 74.05652474939836 565.5831554774757 70.06321687616105 431.448447515834C66.06990900292374 297.31373955419235 252.25585695685777 70.69214663739524 384.61592627567643 48.581551040650595C516.9759955944952 26.47095544390595 649.9102704590867 187.55453496391078 705.3915496064917 325.31758865146026C760.8728287538966 463.0806423390095 713.761013170569 633.3628419481637 650.9260661832199 709.8442087408865 "></path><path d="M677.6286897834228 332.10685715917543C728.0662162810636 457.34599687512946 685.2372930234932 612.147996519815 628.1146139440848 681.6765117859267C570.9919348646764 751.2050270520383 513.4517334801144 718.570200365499 403.43983020226244 665.8437304365118C293.4279269244106 613.1172605075245 103.6877580951562 550.5300997282804 100.057478210395 428.58945612678804C96.42719832563381 306.6488125252956 265.6871510110284 100.6291826009346 386.01448675540905 80.52864114934857C506.3418224997897 60.42809969776255 627.191163285782 206.86771744322147 677.6286897834228 332.10685715917543C728.0662162810636 457.34599687512946 685.2372930234932 612.147996519815 628.1146139440848 681.6765117859267 "></path><path d="M649.8657994427758 338.89615618446885C695.2595732906526 451.6113819288273 656.7135423588392 590.9331816090444 605.3031311873716 653.5088453485448C553.8927200159042 716.0845090880454 502.10653876979825 686.7131650701599 403.09582581973154 639.2593421340715C304.08511286966484 591.8055191979829 133.3189609233359 535.4770744966632 130.05170902705083 425.7304952553201C126.78445713076576 315.983916013977 279.1184145476209 130.56624908205202 387.41301671756344 112.47576177562462C495.707618887506 94.38527446919721 604.4720255948992 226.18093044011027 649.8657994427758 338.89615618446885C695.2595732906526 451.6113819288273 656.7135423588392 590.9331816090444 605.3031311873716 653.5088453485448 "></path><path d="M622.102924360918 345.68554676249664C662.4529455590305 445.87685853525977 628.1898069529742 569.7184582510083 582.4916636894475 625.3412704638976C536.7935204259209 680.9640826767869 490.76135931827116 654.8562213275554 402.7518366959896 612.6750453843656C314.74231407370814 570.4938694411758 162.95017901030468 520.4241408177805 160.04595510249567 422.8716259365866C157.1417311946867 325.3191110553927 292.5496933430024 160.50340711590388 388.8115619385069 144.4229739546351C485.07343053401144 128.34254079336625 581.7529031628053 245.4942349897334 622.102924360918 345.68554676249664C662.4529455590305 445.87685853525977 628.1898069529742 569.7184582510083 582.4916636894475 625.3412704638976 "></path><path d="M594.340064537849 352.47484578778995C629.6463330861976 440.14224358895774 599.6660868058983 548.5036433402377 559.6802114503125 597.1736040265158C519.6943360947266 645.843564712794 479.41619512553314 622.9991860322164 402.40786283103694 586.0906570819254C325.3995305365405 549.1821281316343 192.58141235606246 505.37111558616346 190.04021643672962 420.01266506511877C187.4990205173968 334.6542145440741 305.98098739717295 190.44047359702137 390.2101224182395 176.3700945809112C474.43925743930595 162.29971556480098 559.0337959895005 264.8074479866222 594.340064537849 352.47484578778995C629.6463330861976 440.14224358895774 599.6660868058983 548.5036433402377 559.6802114503125 597.1736040265158 "></path><path d="M566.5772047147802 359.2641600718724C596.8397206133648 434.40764390144477 571.1423666588224 527.2888436882562 536.8687592111773 569.0059528479231C502.5951517635324 610.7230620075902 468.0710309327951 591.1421659956666 402.06388896608405 559.5062840382743C336.05674699937293 527.8704020808818 222.2126457018203 490.31810561333543 220.03447777096358 417.15371945244C217.85630984010686 343.98933329154454 319.4122814513436 220.3775553369279 391.608682897972 208.3172304659763C463.80508434460035 196.2569055950247 536.3146888161957 284.1206762423001 566.5772047147802 359.2641600718724C596.8397206133648 434.40764390144477 571.1423666588224 527.2888436882562 536.8687592111773 569.0059528479231 "></path><path d="M538.8143448917115 366.05345909716584C564.0331081405318 428.67302895514285 542.6186465117466 506.07402877748564 514.0573069720424 540.8382864105415C485.49596743233815 575.6025440435973 456.7258667400572 559.2851307003276 401.7199151011312 532.921895735834C346.7139634622053 506.5586607713403 251.84387904757813 475.26508038171835 250.02873910519753 414.29475858097214C248.21359916281688 353.32443678022594 332.8435755055142 250.3146218180454 393.0072433777045 240.2643510922524C453.17091124989486 230.21408036645937 513.5955816428909 303.43388923918883 538.8143448917115 366.05345909716584C564.0331081405318 428.67302895514285 542.6186465117466 506.07402877748564 514.0573069720424 540.8382864105415 "></path><path d="M511.0514850686426 372.84275812245926C531.2264956676988 422.9384140088408 514.0949263646708 484.8592138667151 491.24585473290733 512.6706199731598C468.396783101144 540.4820260796043 445.3807025473192 527.4280954049887 401.3759412361784 506.33750743339374C357.37117992503767 485.2469194617988 281.4751123933359 460.21205515010115 280.0230004394314 411.43579770950424C278.57088848552695 362.6595402689073 346.2748695596848 280.2516882991629 394.40580385743704 272.21147171852846C442.5367381551893 264.1712551378941 490.87647446958624 322.74710223607764 511.0514850686426 372.84275812245926C531.2264956676988 422.9384140088408 514.0949263646708 484.8592138667151 491.24585473290733 512.6706199731598 "></path><path d="M483.2885947279956 379.63208766533074C498.41985267728785 417.2038295801169 485.57117570001674 463.6444294735226 468.43437197619414 484.50298405335616C451.29756825237166 505.36153863318964 434.035507837003 495.5710906272278 401.0319368536475 479.7531496485317C368.02836587029196 463.93520866983545 311.1063152215156 445.15906043606225 310.01723125608726 408.5768673556145C308.9281472906589 371.9946742751668 359.70613309627726 310.1887852978585 395.8043338195915 304.1586228623827C431.90253454290564 298.1284604269069 468.1573367787033 342.06034575054457 483.2885947279956 379.63208766533074C498.41985267728785 417.2038295801169 485.57117570001674 463.6444294735226 468.43437197619414 484.50298405335616 "></path><path d="M455.52573490492676 386.42138669062416C465.6132402044549 411.46921463381494 457.04745555294085 442.4296145627521 445.62291973705914 456.3353176159744C434.1983839211775 470.2410206691967 422.69034364426506 463.71405533188886 400.68796298869466 453.1687613460914C378.68558233312433 442.62346736029394 340.73754856727345 430.1060352044451 340.0114925903212 405.7179064841466C339.285436613369 381.3297777638482 373.1374271504479 340.12585177897597 397.202894299324 336.1057434886588C421.26836144820015 332.08563519834155 445.4382296053986 361.3735587474334 455.52573490492676 386.42138669062416C465.6132402044549 411.46921463381494 457.04745555294085 442.4296145627521 445.62291973705914 456.3353176159744 "></path><path d="M427.7628750818579 393.2107009747066C432.806627731622 405.73461494630203 428.52373540586495 421.21481491077054 422.8114674979241 428.16766643738174C417.09919958998324 435.1205179639929 411.3451794515271 431.85703529533896 400.3439891237419 426.58438830244023C389.3427987959567 421.3117413095415 370.3687819130312 415.0530252316171 370.0057539245551 402.85896087146784C369.642725936079 390.6648965113186 386.56872120461844 370.0629335188825 398.60145477905655 368.0528793737239C410.6341883534946 366.04282522856533 422.7191224320938 380.6867870031112 427.7628750818579 393.2107009747066C432.806627731622 405.73461494630203 428.52373540586495 421.21481491077054 422.8114674979241 428.16766643738174 "></path></g></svg>