<svg width="150" height="209" viewBox="0 0 150 209" fill="none" xmlns="http://www.w3.org/2000/svg">
<path d="M76.9781 0.00200197C77.6307 0.00340955 78.2834 0.00257168 78.936 0.00115282C81.6184 -0.00380411 84.2803 0.00946173 86.9515 0.281114C87.1467 0.299434 87.342 0.317646 87.5372 0.335731C88.0397 0.383697 88.5412 0.43903 89.0426 0.49717C89.1311 0.507421 89.2196 0.517673 89.3107 0.528235C96.4348 1.36261 103.463 3.04317 110.121 5.72242C110.48 5.86488 110.842 5.99736 111.204 6.13005C113.06 6.84287 114.858 7.72196 116.604 8.67015C117.054 8.91413 117.511 9.1392 117.971 9.36317C118.679 9.71383 119.347 10.1073 120.014 10.5293C120.541 10.8573 121.081 11.1593 121.623 11.461C121.756 11.5494 121.756 11.5494 121.891 11.6395C121.891 11.721 121.891 11.8024 121.891 11.8864C121.993 11.9144 122.095 11.9424 122.2 11.9713C122.722 12.1674 123.144 12.439 123.604 12.7506C123.689 12.8063 123.774 12.862 123.861 12.9194C124.074 13.0618 124.279 13.2141 124.483 13.3679C124.483 13.4494 124.483 13.5309 124.483 13.6148C124.568 13.6428 124.652 13.6709 124.738 13.6997C125.187 13.9003 125.598 14.1492 125.965 14.4791C125.965 14.5605 125.965 14.642 125.965 14.726C126.046 14.7514 126.128 14.7769 126.212 14.8031C126.715 15.0336 127.161 15.3403 127.57 15.7137C127.57 15.7952 127.57 15.8766 127.57 15.9606C127.672 16.0064 127.672 16.0064 127.776 16.0532C128.12 16.2374 128.407 16.459 128.712 16.7014C128.877 16.8312 128.877 16.8312 129.046 16.9637C129.129 17.0401 129.213 17.1165 129.298 17.1952C129.298 17.2767 129.298 17.3582 129.298 17.4421C129.38 17.4421 129.461 17.4421 129.545 17.4421C129.545 17.5236 129.545 17.6051 129.545 17.689C129.653 17.7371 129.653 17.7371 129.763 17.7862C130.059 17.9469 130.268 18.1252 130.512 18.3575C130.6 18.4413 130.689 18.5252 130.78 18.6116C130.918 18.7431 130.918 18.7431 131.058 18.8773C131.147 18.9622 131.237 19.047 131.329 19.1344C131.6 19.3919 131.869 19.6512 132.138 19.9113C132.233 20.0025 132.328 20.0936 132.426 20.1875C132.516 20.2756 132.606 20.3636 132.699 20.4544C132.822 20.5736 132.822 20.5736 132.948 20.6952C133.126 20.899 133.126 20.899 133.126 21.1459C133.207 21.1459 133.289 21.1459 133.373 21.1459C133.568 21.3446 133.568 21.3446 133.789 21.6089C134.032 21.8952 134.269 22.1647 134.538 22.4268C134.731 22.6275 134.731 22.6275 134.731 22.8744C134.812 22.8744 134.894 22.8744 134.978 22.8744C135.15 23.0631 135.313 23.2604 135.471 23.4608C135.569 23.5835 135.667 23.7062 135.768 23.8326C135.82 23.8978 135.872 23.9629 135.925 24.0301C136.093 24.2373 136.264 24.4409 136.436 24.6438C136.493 24.7105 136.55 24.7771 136.608 24.8458C136.769 25.0352 136.931 25.2244 137.092 25.4135C137.323 25.714 137.323 25.714 137.323 25.9609C137.405 25.9609 137.486 25.9609 137.57 25.9609C137.722 26.1316 137.722 26.1316 137.893 26.3732C137.989 26.5074 137.989 26.5074 138.087 26.6443C138.156 26.7422 138.225 26.84 138.296 26.9408C138.403 27.0913 138.403 27.0913 138.512 27.2448C138.66 27.4542 138.808 27.6639 138.956 27.8738C139.16 28.1614 139.365 28.4474 139.572 28.733C140.316 29.7674 141.007 30.8189 141.645 31.9223C141.763 32.1246 141.882 32.3256 142.002 32.5265C142.501 33.3647 142.95 34.2182 143.373 35.097C143.478 35.3125 143.478 35.3125 143.585 35.5324C145.479 39.4646 146.302 43.7512 146.83 48.0603C146.844 48.1697 146.858 48.2791 146.872 48.3919C148.114 58.3819 146.927 70.057 142.448 79.1453C142.31 79.4388 142.195 79.7191 142.086 80.0226C141.889 80.5601 141.632 81.0544 141.359 81.5567C141.285 81.6949 141.285 81.6949 141.209 81.8359C141.111 82.0188 141.012 82.2015 140.913 82.384C140.803 82.5867 140.695 82.7899 140.586 82.9933C140.408 83.3268 140.225 83.6574 140.039 83.9873C139.997 84.0623 139.955 84.1373 139.912 84.2145C138.847 86.1017 137.617 87.8458 136.264 89.5367C136.009 89.8578 135.766 90.1833 135.525 90.5153C135.426 90.6426 135.327 90.7699 135.225 90.9011C135.143 90.9011 135.062 90.9011 134.978 90.9011C134.978 90.9825 134.978 91.064 134.978 91.148C134.896 91.148 134.815 91.148 134.731 91.148C134.702 91.2168 134.673 91.2856 134.644 91.3564C134.442 91.7158 134.192 91.9655 133.901 92.2572C133.786 92.3726 133.671 92.488 133.553 92.6068C133.493 92.6662 133.433 92.7256 133.371 92.7868C133.187 92.9693 133.005 93.1531 132.822 93.337C132.707 93.4517 132.592 93.5665 132.474 93.6847C132.368 93.7902 132.262 93.8957 132.153 94.0043C131.891 94.2345 131.891 94.2345 131.644 94.2345C131.644 94.316 131.644 94.3975 131.644 94.4814C131.563 94.4814 131.481 94.4814 131.397 94.4814C131.397 94.5629 131.397 94.6444 131.397 94.7283C131.155 94.9396 130.912 95.1358 130.657 95.3302C130.54 95.4204 130.54 95.4204 130.42 95.5124C130.254 95.6401 130.087 95.7675 129.921 95.8945C129.681 96.0769 129.443 96.2607 129.205 96.4447C126.434 98.5723 123.426 100.474 120.286 102.013C120.579 102.232 120.872 102.45 121.165 102.668C121.289 102.761 121.289 102.761 121.414 102.855C121.885 103.203 122.343 103.497 122.879 103.741C122.879 103.822 122.879 103.904 122.879 103.988C122.969 104.021 123.06 104.054 123.153 104.088C123.705 104.324 124.162 104.685 124.646 105.037C124.8 105.147 124.8 105.147 124.958 105.26C125.104 105.365 125.104 105.365 125.254 105.473C125.343 105.538 125.432 105.602 125.524 105.668C125.62 105.753 125.62 105.753 125.718 105.84C125.718 105.921 125.718 106.003 125.718 106.087C125.799 106.111 125.88 106.135 125.964 106.16C126.492 106.407 126.901 106.77 127.346 107.144C127.523 107.291 127.699 107.438 127.876 107.584C127.954 107.649 128.031 107.714 128.111 107.781C128.309 107.948 128.309 107.948 128.558 108.062C128.558 108.144 128.558 108.225 128.558 108.309C128.629 108.342 128.7 108.375 128.774 108.409C129.058 108.56 129.301 108.717 129.545 108.926C129.545 109.008 129.545 109.089 129.545 109.173C129.749 109.255 129.953 109.336 130.163 109.42C130.163 109.502 130.163 109.583 130.163 109.667C130.229 109.694 130.294 109.72 130.362 109.748C130.765 109.975 131.08 110.284 131.413 110.601C131.862 111.048 131.862 111.048 132.385 111.395C132.385 111.477 132.385 111.558 132.385 111.642C132.466 111.642 132.548 111.642 132.632 111.642C132.632 111.724 132.632 111.805 132.632 111.889C132.713 111.889 132.795 111.889 132.879 111.889C133.079 112.059 133.079 112.059 133.249 112.26C133.249 112.341 133.249 112.423 133.249 112.507C133.331 112.507 133.412 112.507 133.496 112.507C133.496 112.588 133.496 112.67 133.496 112.754C133.578 112.754 133.659 112.754 133.743 112.754C133.743 112.835 133.743 112.917 133.743 113C133.824 113 133.906 113 133.99 113C133.99 113.082 133.99 113.163 133.99 113.247C134.071 113.247 134.153 113.247 134.237 113.247C134.237 113.329 134.237 113.41 134.237 113.494C134.318 113.494 134.4 113.494 134.484 113.494C134.484 113.576 134.484 113.657 134.484 113.741C134.565 113.741 134.647 113.741 134.731 113.741C135.273 114.267 135.717 114.887 136.163 115.493C136.401 115.8 136.675 116.063 136.953 116.334C137.57 117.014 137.57 117.014 137.57 117.322C137.652 117.322 137.733 117.322 137.817 117.322C138.311 117.99 138.311 117.99 138.311 118.309C138.393 118.309 138.474 118.309 138.558 118.309C138.744 118.544 138.744 118.544 138.944 118.849C139.01 118.95 139.077 119.05 139.145 119.153C139.299 119.42 139.299 119.42 139.299 119.667C139.38 119.667 139.462 119.667 139.546 119.667C139.661 119.83 139.775 119.994 139.881 120.163C140.147 120.575 140.443 120.967 140.732 121.363C140.904 121.643 140.904 121.643 140.904 122.013C140.985 122.013 141.067 122.013 141.151 122.013C141.359 122.32 141.359 122.32 141.59 122.723C141.667 122.855 141.744 122.987 141.822 123.122C141.978 123.423 142.08 123.659 142.138 123.988C142.22 123.988 142.301 123.988 142.385 123.988C142.634 124.44 142.88 124.893 143.126 125.347C143.169 125.425 143.212 125.504 143.256 125.585C143.819 126.618 144.346 127.655 144.807 128.738C144.995 129.181 145.194 129.612 145.418 130.038C145.841 130.872 146.147 131.751 146.459 132.631C146.503 132.755 146.548 132.878 146.593 133.006C150.398 143.755 151.332 156.214 147.768 167.703C147.691 167.951 147.619 168.2 147.549 168.451C147.07 170.154 146.499 171.833 145.739 173.433C145.586 173.764 145.452 174.099 145.317 174.437C144.906 175.436 144.382 176.376 143.867 177.323C143.767 177.509 143.767 177.509 143.665 177.699C143.172 178.611 142.656 179.511 142.138 180.41C142.057 180.41 141.975 180.41 141.891 180.41C141.88 180.477 141.869 180.545 141.857 180.614C141.655 181.269 141.168 181.828 140.78 182.385C140.689 182.517 140.598 182.648 140.504 182.784C140.001 183.495 140.001 183.495 139.793 183.743C139.711 183.743 139.63 183.743 139.546 183.743C139.52 183.825 139.495 183.906 139.468 183.99C139.238 184.493 138.931 184.939 138.558 185.348C138.476 185.348 138.395 185.348 138.311 185.348C138.277 185.422 138.244 185.495 138.209 185.571C138.068 185.835 137.925 186.017 137.72 186.233C137.622 186.337 137.622 186.337 137.522 186.444C137.454 186.515 137.386 186.587 137.316 186.66C136.834 187.138 136.834 187.138 136.459 187.694C136.378 187.694 136.296 187.694 136.212 187.694C136.212 187.776 136.212 187.857 136.212 187.941C136.131 187.941 136.049 187.941 135.965 187.941C135.965 188.022 135.965 188.104 135.965 188.188C135.884 188.188 135.802 188.188 135.718 188.188C135.718 188.269 135.718 188.351 135.718 188.435C135.637 188.435 135.555 188.435 135.471 188.435C135.471 188.516 135.471 188.598 135.471 188.682C135.39 188.682 135.308 188.682 135.225 188.682C135.225 188.763 135.225 188.845 135.225 188.929C135.143 188.929 135.062 188.929 134.978 188.929C134.978 189.01 134.978 189.092 134.978 189.176C134.896 189.176 134.815 189.176 134.731 189.176C134.731 189.257 134.731 189.339 134.731 189.422C134.649 189.422 134.568 189.422 134.484 189.422C134.484 189.504 134.484 189.585 134.484 189.669C134.402 189.669 134.321 189.669 134.237 189.669C134.237 189.751 134.237 189.832 134.237 189.916C134.051 190.103 134.051 190.103 133.797 190.318C133.707 190.393 133.618 190.469 133.526 190.548C133.434 190.624 133.343 190.701 133.249 190.781C133.167 190.854 133.085 190.927 133 191.002C132.886 191.102 132.886 191.102 132.771 191.205C132.702 191.266 132.634 191.327 132.563 191.39C132.385 191.521 132.385 191.521 132.138 191.521C132.138 191.603 132.138 191.684 132.138 191.768C131.896 191.979 131.653 192.176 131.397 192.37C131.319 192.43 131.24 192.491 131.16 192.553C130.993 192.681 130.826 192.809 130.659 192.936C130.427 193.113 130.197 193.292 129.968 193.472C127.947 195.037 125.77 196.426 123.553 197.695C123.204 197.896 122.864 198.105 122.524 198.319C121.763 198.779 120.949 199.136 120.145 199.511C119.696 199.72 119.254 199.939 118.814 200.167C117.623 200.781 116.39 201.278 115.146 201.774C114.802 201.913 114.461 202.06 114.121 202.208C113.17 202.607 112.189 202.927 111.215 203.261C110.703 203.437 110.197 203.622 109.691 203.813C108.481 204.249 107.227 204.551 105.983 204.877C105.635 204.968 105.287 205.06 104.939 205.154C104.743 205.206 104.548 205.258 104.352 205.31C104.27 205.332 104.188 205.354 104.104 205.377C102.397 205.827 100.677 206.197 98.9426 206.522C98.8435 206.54 98.7444 206.559 98.6423 206.578C96.0806 207.057 93.5164 207.431 90.9254 207.71C90.8345 207.72 90.7436 207.73 90.6499 207.74C89.9528 207.816 89.2551 207.881 88.5565 207.942C88.4314 207.953 88.3063 207.964 88.1774 207.975C85.5163 208.203 82.8638 208.227 80.1944 208.221C79.608 208.219 79.0215 208.22 78.435 208.221C75.7072 208.227 73.0037 208.17 70.2844 207.942C70.1121 207.928 70.1121 207.928 69.9363 207.913C69.2695 207.858 68.604 207.795 67.9386 207.725C67.7914 207.71 67.7914 207.71 67.6412 207.695C61.8586 207.089 55.9162 206.113 50.3566 204.376C49.9829 204.259 49.6079 204.151 49.2311 204.045C48.1486 203.737 47.08 203.385 46.0118 203.032C45.8324 202.972 45.653 202.913 45.4735 202.854C44.4879 202.529 43.521 202.186 42.5664 201.777C42.2105 201.624 41.8502 201.487 41.4872 201.352C38.0876 200.054 34.6633 198.427 31.5868 196.483C31.2385 196.265 30.8839 196.061 30.5267 195.858C30.419 195.797 30.3112 195.735 30.2002 195.672C29.9852 195.55 29.7699 195.429 29.5541 195.309C29.4565 195.254 29.3589 195.198 29.2584 195.141C29.1703 195.092 29.0822 195.043 28.9915 194.992C28.9289 194.947 28.8662 194.901 28.8017 194.855C28.8017 194.773 28.8017 194.692 28.8017 194.608C28.6993 194.581 28.597 194.554 28.4916 194.526C27.9596 194.322 27.5534 194.032 27.0964 193.697C26.9101 193.563 26.7238 193.429 26.5374 193.295C26.4424 193.226 26.3474 193.157 26.2496 193.086C25.9701 192.885 25.6887 192.688 25.406 192.491C24.5053 191.865 23.6305 191.229 22.7912 190.522C22.531 190.308 22.2661 190.114 21.9882 189.924C21.8736 189.84 21.759 189.756 21.641 189.669C21.641 189.588 21.641 189.506 21.641 189.422C21.4372 189.341 21.2335 189.26 21.0236 189.176C21.0236 189.094 21.0236 189.013 21.0236 188.929C20.9215 188.883 20.9215 188.883 20.8172 188.836C20.4741 188.652 20.1864 188.43 19.8816 188.188C19.7715 188.101 19.6614 188.015 19.5479 187.926C19.4645 187.849 19.3811 187.773 19.2952 187.694C19.2952 187.613 19.2952 187.531 19.2952 187.447C19.2137 187.447 19.1322 187.447 19.0483 187.447C19.0483 187.366 19.0483 187.284 19.0483 187.2C18.9822 187.174 18.9161 187.148 18.8481 187.122C18.4405 186.888 18.1348 186.566 17.8074 186.235C17.7362 186.163 17.6649 186.092 17.5915 186.019C17.4409 185.868 17.2905 185.716 17.1405 185.565C16.9136 185.336 16.6858 185.107 16.4578 184.88C15.7315 184.151 15.0226 183.417 14.3568 182.632C14.0902 182.339 13.823 182.046 13.5548 181.753C13.3691 181.521 13.3691 181.521 13.3691 181.274C13.2876 181.274 13.2061 181.274 13.1222 181.274C12.9493 181.067 12.7865 180.852 12.6283 180.634C12.5286 180.497 12.4288 180.361 12.3289 180.225C12.2509 180.118 12.2509 180.118 12.1713 180.009C11.9618 179.726 11.7458 179.448 11.5292 179.17C10.0357 177.254 10.0357 177.254 10.0357 176.83C9.95419 176.83 9.8727 176.83 9.78875 176.83C9.66652 176.463 9.66652 176.463 9.54183 176.089C9.46034 176.089 9.37886 176.089 9.29491 176.089C9.24055 175.989 9.24055 175.989 9.1851 175.887C8.79427 175.177 8.38155 174.482 7.95999 173.789C5.83631 170.265 4.19111 166.451 2.95858 162.526C2.88617 162.297 2.81068 162.068 2.73463 161.84C2.42975 160.906 2.21177 159.957 2.00152 158.998C1.87225 158.409 1.73519 157.824 1.58495 157.24C1.30891 156.164 1.0884 155.084 0.899599 153.989C0.88409 153.9 0.86858 153.81 0.852601 153.717C0.756499 153.157 0.663412 152.596 0.572607 152.035C0.54456 151.862 0.516292 151.689 0.487758 151.515C0.0543606 148.88 -0.0249816 146.304 0.0059577 143.638C0.00689332 143.538 0.00782705 143.438 0.00879102 143.335C0.0205818 142.646 0.0205837 142.646 0.158836 142.508C0.347018 142.492 0.535882 142.486 0.724641 142.482C0.846997 142.48 0.969358 142.478 1.09542 142.475C1.23071 142.473 1.366 142.471 1.50539 142.469C1.64671 142.467 1.78804 142.464 1.93364 142.461C2.4052 142.453 2.87676 142.446 3.34834 142.439C3.51304 142.437 3.67774 142.434 3.84243 142.431C7.33592 142.376 10.8292 142.366 14.3231 142.367C14.8171 142.368 15.3111 142.368 15.8051 142.368C15.9304 142.368 15.9304 142.368 16.0581 142.367C16.228 142.367 16.3979 142.367 16.5677 142.367C18.131 142.367 19.6943 142.367 21.2576 142.368C22.5957 142.369 23.9338 142.369 25.2719 142.368C26.8424 142.367 28.4129 142.367 29.9834 142.367C30.1504 142.367 30.3173 142.368 30.4843 142.368C30.5664 142.368 30.6484 142.368 30.733 142.368C31.3089 142.368 31.8848 142.368 32.4607 142.367C33.2306 142.367 34.0005 142.367 34.7704 142.368C35.0527 142.368 35.335 142.368 35.6173 142.368C36.0015 142.367 36.3856 142.368 36.7697 142.368C36.938 142.368 36.938 142.368 37.1098 142.368C37.2125 142.368 37.3152 142.368 37.4211 142.369C37.5096 142.369 37.5981 142.369 37.6892 142.369C37.953 142.385 38.1805 142.425 38.4316 142.508C38.8594 143.115 38.8142 143.92 38.8315 144.635C38.9441 149.003 39.8929 153.275 41.5181 157.323C41.5733 157.462 41.6285 157.602 41.6854 157.745C42.6579 160.11 43.9378 162.307 45.5117 164.32C45.7157 164.607 45.7157 164.607 45.7157 164.854C45.7972 164.854 45.8787 164.854 45.9627 164.854C46.098 165.013 46.2249 165.179 46.3485 165.348C46.8408 165.979 47.3808 166.548 47.9457 167.115C48.0288 167.199 48.1118 167.283 48.1973 167.37C48.5854 167.755 48.9674 168.106 49.4191 168.416C49.5414 168.504 49.6638 168.591 49.7899 168.681C49.7899 168.763 49.7899 168.844 49.7899 168.928C49.8951 168.977 49.8951 168.977 50.0023 169.027C50.3035 169.185 50.5625 169.368 50.836 169.57C54.056 171.911 57.5994 173.556 61.3952 174.731C61.5302 174.773 61.6651 174.816 61.8042 174.859C71.7964 177.86 83.5687 178.484 93.4054 174.735C93.7002 174.623 93.9957 174.514 94.2921 174.406C97.9249 173.083 101.609 171.427 104.326 168.581C104.483 168.434 104.483 168.434 104.73 168.434C104.73 168.353 104.73 168.271 104.73 168.187C104.811 168.187 104.893 168.187 104.977 168.187C105.007 168.119 105.038 168.05 105.069 167.979C105.252 167.641 105.463 167.363 105.718 167.076C105.799 167.076 105.88 167.076 105.964 167.076C105.994 167.009 106.023 166.942 106.053 166.873C106.252 166.507 106.504 166.21 106.767 165.888C107.973 164.359 108.831 162.584 109.545 160.78C109.594 160.655 109.594 160.655 109.645 160.528C110.18 159.16 110.529 157.781 110.779 156.335C110.807 156.177 110.835 156.018 110.864 155.855C111.248 153.221 111.169 150.423 110.656 147.816C110.636 147.709 110.616 147.602 110.596 147.492C109.965 144.146 108.584 141.171 106.831 138.28C106.696 138.048 106.576 137.81 106.458 137.569C106.377 137.569 106.295 137.569 106.211 137.569C106.025 137.362 106.025 137.362 105.826 137.091C105.726 136.957 105.726 136.957 105.624 136.822C105.471 136.581 105.471 136.581 105.471 136.334C105.389 136.334 105.308 136.334 105.224 136.334C105.038 136.154 105.038 136.154 104.838 135.918C104.738 135.802 104.738 135.802 104.636 135.683C104.483 135.47 104.483 135.47 104.483 135.223C104.401 135.223 104.32 135.223 104.236 135.223C104.069 135.02 103.904 134.814 103.742 134.606C103.661 134.565 103.579 134.525 103.495 134.483C103.495 134.401 103.495 134.32 103.495 134.236C103.414 134.236 103.332 134.236 103.248 134.236C103.248 134.154 103.248 134.073 103.248 133.989C103.18 133.958 103.111 133.928 103.04 133.896C102.702 133.714 102.424 133.503 102.137 133.248C102.137 133.167 102.137 133.085 102.137 133.001C102.056 133.001 101.974 133.001 101.89 133.001C101.89 132.92 101.89 132.838 101.89 132.754C101.785 132.707 101.785 132.707 101.679 132.659C101.361 132.488 101.11 132.284 100.833 132.052C100.27 131.591 99.6823 131.206 99.0574 130.834C98.9737 130.775 98.89 130.716 98.8037 130.655C98.8037 130.574 98.8037 130.492 98.8037 130.408C98.6941 130.375 98.5844 130.343 98.4714 130.309C98.0834 130.169 97.7947 130.011 97.4534 129.783C96.2298 128.988 95.014 128.244 93.6878 127.631C92.9064 127.269 92.1362 126.894 91.3807 126.481C91.2966 126.436 91.2125 126.392 91.1258 126.346C90.5545 126.027 90.5545 126.027 90.4491 125.734C90.4079 125.467 90.3889 125.212 90.3833 124.941C90.3809 124.836 90.3785 124.73 90.376 124.621C90.374 124.504 90.372 124.388 90.3699 124.269C90.3661 124.082 90.3661 124.082 90.3622 123.891C90.354 123.467 90.3469 123.044 90.3399 122.621C90.3373 122.471 90.3348 122.322 90.3321 122.168C90.2599 117.896 90.2663 113.623 90.2691 109.35C90.2695 108.567 90.2694 107.784 90.2689 107.001C90.2659 102.469 90.272 97.9377 90.336 93.4063C90.3399 93.1314 90.3436 92.8566 90.3472 92.5817C90.3539 92.0791 90.3618 91.5766 90.3699 91.0741C90.3719 90.9267 90.3739 90.7793 90.376 90.6274C90.3796 90.4251 90.3796 90.4251 90.3833 90.2187C90.3861 90.0441 90.3861 90.0441 90.389 89.866C90.4084 89.5424 90.4606 89.2415 90.5319 88.9257C91.5991 88.9799 92.551 89.3281 93.5489 89.6819C93.7273 89.7442 93.9057 89.8065 94.0841 89.8687C95.0798 90.2174 96.0684 90.5807 97.049 90.9701C97.7479 91.2473 98.4512 91.5107 99.1587 91.7653C99.2638 91.8042 99.369 91.8432 99.4773 91.8833C99.5756 91.9182 99.6738 91.9531 99.775 91.9891C99.8617 92.0204 99.9484 92.0518 100.038 92.0841C100.334 92.1458 100.498 92.1206 100.779 92.0122C100.987 91.8089 101.193 91.6033 101.396 91.3949C101.478 91.3949 101.559 91.3949 101.643 91.3949C101.643 91.3134 101.643 91.2319 101.643 91.148C101.725 91.148 101.806 91.148 101.89 91.148C101.89 91.0665 101.89 90.985 101.89 90.9011C101.972 90.9011 102.053 90.9011 102.137 90.9011C102.137 90.8196 102.137 90.7381 102.137 90.6541C102.34 90.4453 102.34 90.4453 102.608 90.2143C102.739 90.0995 102.739 90.0995 102.873 89.9823C103.125 89.7899 103.125 89.7899 103.495 89.6665C103.495 89.585 103.495 89.5035 103.495 89.4195C103.577 89.4195 103.658 89.4195 103.742 89.4195C103.742 89.3381 103.742 89.2566 103.742 89.1726C103.824 89.1726 103.905 89.1726 103.989 89.1726C103.989 89.0911 103.989 89.0097 103.989 88.9257C104.153 88.7646 104.153 88.7646 104.39 88.5707C104.873 88.1613 105.324 87.7289 105.772 87.2821C105.837 87.217 105.903 87.1518 105.971 87.0847C106.319 86.7415 106.319 86.7415 106.582 86.333C106.663 86.333 106.745 86.333 106.829 86.333C106.829 86.2515 106.829 86.1701 106.829 86.0861C106.91 86.0861 106.992 86.0861 107.076 86.0861C107.109 86.0142 107.142 85.9422 107.176 85.8681C107.324 85.5888 107.488 85.3693 107.693 85.1293C107.757 85.0535 107.82 84.9778 107.886 84.8997C108.063 84.728 108.063 84.728 108.31 84.728C108.31 84.6466 108.31 84.5651 108.31 84.4811C108.392 84.4811 108.473 84.4811 108.557 84.4811C108.586 84.4143 108.616 84.3474 108.646 84.2786C108.846 83.9092 109.094 83.6031 109.36 83.2774C109.507 83.095 109.507 83.095 109.657 82.9089C109.785 82.7705 109.785 82.7705 109.915 82.6292C109.997 82.6292 110.078 82.6292 110.162 82.6292C110.193 82.5401 110.223 82.451 110.255 82.3591C110.424 81.9778 110.622 81.702 110.903 81.3946C110.984 81.3946 111.066 81.3946 111.15 81.3946C111.185 81.3004 111.221 81.2062 111.258 81.1091C111.397 80.7773 111.397 80.7773 111.644 80.4069C111.725 80.4069 111.807 80.4069 111.891 80.4069C111.94 80.2719 111.94 80.2719 111.99 80.1342C112.138 79.7893 112.308 79.5192 112.527 79.2152C112.602 79.1092 112.678 79.0031 112.755 78.8938C112.834 78.7846 112.913 78.6753 112.994 78.5627C113.684 77.6123 113.684 77.6123 114.236 76.5797C114.318 76.5797 114.399 76.5797 114.483 76.5797C114.498 76.5093 114.512 76.439 114.527 76.3665C114.615 76.058 114.74 75.8239 114.9 75.5457C117.59 70.6869 119.536 65.5027 119.792 59.9125C119.797 59.803 119.802 59.6935 119.808 59.5807C119.905 55.4525 118.684 51.4046 116.722 47.8148C116.525 47.4519 116.352 47.0917 116.212 46.7022C116.13 46.7022 116.049 46.7022 115.965 46.7022C115.883 46.4578 115.802 46.2133 115.718 45.9615C115.636 45.9615 115.555 45.9615 115.471 45.9615C114.977 45.2933 114.977 45.2933 114.977 44.9738C114.896 44.9738 114.814 44.9738 114.73 44.9738C114.543 44.7611 114.543 44.7611 114.329 44.4722C114.045 44.0976 113.76 43.7275 113.457 43.3688C113.399 43.3 113.341 43.2313 113.281 43.1605C113.127 42.982 113.127 42.982 112.878 42.875C112.878 42.7935 112.878 42.712 112.878 42.628C112.797 42.628 112.715 42.628 112.631 42.628C112.631 42.5466 112.631 42.4651 112.631 42.3811C112.55 42.3811 112.468 42.3811 112.384 42.3811C112.384 42.2996 112.384 42.2181 112.384 42.1342C112.303 42.1342 112.221 42.1342 112.137 42.1342C112.137 42.0527 112.137 41.9712 112.137 41.8873C112.071 41.8597 112.004 41.8322 111.935 41.8038C111.628 41.6318 111.389 41.4229 111.13 41.1859C109.895 40.0594 108.492 39.1866 107.076 38.3069C106.95 38.2286 106.95 38.2286 106.823 38.1487C105.123 37.0946 103.242 36.2812 101.366 35.5951C101.116 35.501 100.868 35.3988 100.623 35.2923C100.095 35.0637 99.5551 34.8706 99.0121 34.6803C98.85 34.6235 98.85 34.6235 98.6846 34.5655C97.8982 34.2943 97.1069 34.06 96.3039 33.8437C95.5949 33.6521 94.8911 33.4466 94.1894 33.2296C94.0902 33.1998 93.9911 33.1699 93.8889 33.1392C93.3922 32.9837 93.0452 32.8229 92.6307 32.5043C91.4853 32.109 90.2668 31.9338 89.0735 31.7481C88.9479 31.7285 88.8223 31.709 88.6929 31.6888C86.7764 31.4035 84.8561 31.2361 82.9212 31.1456C82.606 31.1307 82.2909 31.1147 81.9757 31.0985C80.0133 31.0007 78.0642 31.0056 76.1024 31.1154C76.0079 31.1206 75.9133 31.1258 75.8159 31.1312C73.7134 31.25 71.6296 31.4785 69.5436 31.7635C69.4009 31.7829 69.2582 31.8024 69.1111 31.8224C65.6934 32.2995 62.1274 33.0015 59.1025 34.7333C58.6625 34.9829 58.2153 35.2074 57.7608 35.4288C57.2795 35.6664 56.8161 35.9105 56.3642 36.2004C55.9629 36.455 55.9629 36.455 55.716 36.455C55.716 36.5365 55.716 36.618 55.716 36.7019C55.485 36.8577 55.485 36.8577 55.1682 37.0337C54.6008 37.3606 54.0986 37.7277 53.5941 38.1439C53.3703 38.3069 53.3703 38.3069 53.1234 38.3069C53.1234 38.3884 53.1234 38.4699 53.1234 38.5538C52.9333 38.7453 52.9333 38.7453 52.6758 38.9628C52.5862 39.0392 52.4966 39.1156 52.4043 39.1943C52.1743 39.3859 51.943 39.5758 51.7113 39.7653C51.3909 40.0032 51.3909 40.0032 51.2715 40.2823C51.19 40.2823 51.1085 40.2823 51.0245 40.2823C51.0245 40.3638 51.0245 40.4453 51.0245 40.5292C50.943 40.5292 50.8616 40.5292 50.7776 40.5292C50.742 40.6031 50.7063 40.6769 50.6696 40.753C50.5307 41.0231 50.5307 41.0231 50.2838 41.3934C50.2023 41.3934 50.1208 41.3934 50.0368 41.3934C49.991 41.4927 49.991 41.4927 49.9443 41.5941C49.7521 41.9592 49.5388 42.2944 49.2961 42.628C49.2146 42.628 49.1331 42.628 49.0492 42.628C49.0202 42.7113 48.9912 42.7945 48.9614 42.8803C48.7625 43.3364 48.502 43.7319 48.2312 44.1481C45.1428 49.0032 43.9374 54.7362 44.975 60.4063C45.0108 60.6155 45.0108 60.6155 45.0473 60.8288C45.4231 62.7127 46.1716 64.5608 47.1273 66.2215C47.2871 66.5172 47.3874 66.7455 47.4442 67.0732C47.5257 67.0732 47.6071 67.0732 47.6911 67.0732C47.8469 67.2772 47.8469 67.2772 48.0229 67.5593C48.3628 68.0898 48.7353 68.5792 49.1331 69.0674C49.2961 69.2955 49.2961 69.2955 49.2961 69.5424C49.3776 69.5424 49.4591 69.5424 49.543 69.5424C50.0368 70.0944 50.0368 70.0944 50.0368 70.4066C50.1183 70.4066 50.1998 70.4066 50.2838 70.4066C50.2838 70.4881 50.2838 70.5696 50.2838 70.6536C50.3653 70.6536 50.4467 70.6536 50.5307 70.6536C50.5307 70.735 50.5307 70.8165 50.5307 70.9005C50.6122 70.9005 50.6937 70.9005 50.7776 70.9005C50.7776 70.982 50.7776 71.0634 50.7776 71.1474C50.8495 71.1805 50.9215 71.2136 50.9956 71.2477C51.2749 71.3961 51.4944 71.5595 51.7344 71.7647C51.8102 71.8284 51.8859 71.892 51.964 71.9576C52.1357 72.1351 52.1357 72.1351 52.1357 72.382C52.207 72.4151 52.2783 72.4482 52.3517 72.4823C52.6364 72.6325 52.879 72.7898 53.1234 72.9993C53.1234 73.0808 53.1234 73.1623 53.1234 73.2462C53.188 73.2753 53.2526 73.3045 53.3192 73.3345C53.713 73.5442 54.0713 73.7994 54.4351 74.0564C54.9359 74.4184 54.9359 74.4184 55.4691 74.7277C55.4691 74.8092 55.4691 74.8907 55.4691 74.9747C55.5531 75.0052 55.6372 75.0358 55.7237 75.0673C56.1566 75.2515 56.5452 75.477 56.9506 75.7154C56.9506 75.7969 56.9506 75.8784 56.9506 75.9624C57.0474 75.9853 57.1442 76.0082 57.2439 76.0318C57.9614 76.3164 58.626 76.7735 59.1729 77.3204C59.3032 78.058 59.3125 78.782 59.3074 79.5293C59.3069 79.7086 59.3069 79.7085 59.3064 79.8915C59.3052 80.2903 59.3031 80.6892 59.301 81.088C59.3 81.3749 59.299 81.6618 59.298 81.9487C59.2953 82.7283 59.2917 83.5078 59.288 84.2874C59.2846 85.0251 59.2817 85.7628 59.2788 86.5005C59.273 87.9677 59.2665 89.4348 59.2597 90.902C59.2532 92.3132 59.2472 93.7244 59.2418 95.1357C59.2358 96.6794 59.2296 98.2231 59.2228 99.7668C59.222 99.9333 59.2213 100.1 59.2206 100.266C59.22 100.389 59.22 100.389 59.2195 100.514C59.217 101.079 59.2148 101.644 59.2126 102.209C59.2012 105.146 59.1883 108.084 59.1307 111.021C59.1263 111.252 59.1221 111.482 59.1184 111.713C59.0983 112.904 59.0522 114.053 58.8025 115.223C58.4072 115.146 58.0378 115.058 57.6596 114.92C57.5627 114.884 57.4658 114.849 57.366 114.813C57.2646 114.775 57.1632 114.737 57.0587 114.698C56.9533 114.659 56.848 114.62 56.7395 114.58C56.0948 114.339 55.4676 114.076 54.8458 113.78C54.4311 113.595 54.0089 113.438 53.583 113.282C52.5196 112.887 51.4704 112.462 50.4227 112.028C50.3311 111.99 50.2396 111.953 50.1453 111.914C47.5777 110.852 45.0903 109.698 42.6361 108.396C42.1108 108.118 41.5833 107.848 41.0484 107.589C38.9738 106.581 37.0002 105.358 35.0568 104.119C34.861 103.994 34.6647 103.87 34.4683 103.746C34.1423 103.54 33.8175 103.332 33.4932 103.124C33.3843 103.055 33.2754 102.986 33.1633 102.915C33.0608 102.849 32.9583 102.783 32.8527 102.715C32.7618 102.657 32.671 102.599 32.5773 102.539C32.5129 102.487 32.4484 102.436 32.382 102.383C32.382 102.301 32.382 102.22 32.382 102.136C32.1376 102.054 31.8931 101.973 31.6412 101.889C31.6412 101.808 31.6412 101.726 31.6412 101.642C31.558 101.614 31.4748 101.586 31.389 101.557C30.9228 101.35 30.5337 101.075 30.1211 100.778C30.0415 100.722 29.9618 100.666 29.8798 100.609C29.6801 100.466 29.4871 100.314 29.2955 100.161C29.2955 100.079 29.2955 99.9976 29.2955 99.9137C29.2115 99.8882 29.1274 99.8627 29.0409 99.8365C28.6386 99.6482 28.3699 99.4169 28.0421 99.1223C27.8134 98.9255 27.5771 98.7562 27.3278 98.5865C27.2031 98.4948 27.0783 98.4031 26.9498 98.3087C26.9498 98.2272 26.9498 98.1457 26.9498 98.0618C26.8606 98.0312 26.7715 98.0007 26.6797 97.9692C26.2984 97.7997 26.0225 97.6021 25.7151 97.321C25.7151 97.2395 25.7151 97.158 25.7151 97.0741C25.6418 97.0404 25.5685 97.0066 25.493 96.9719C25.2297 96.8316 25.0432 96.6887 24.8254 96.4867C24.7174 96.3869 24.7174 96.3869 24.6073 96.2851C24.5324 96.2144 24.4574 96.1438 24.3802 96.071C24.3023 95.9981 24.2244 95.9252 24.1442 95.8501C23.6906 95.4215 23.2652 94.9845 22.8669 94.5036C22.4528 94.0359 21.9996 93.6052 21.5503 93.1716C21.3703 92.9953 21.1964 92.8129 21.0236 92.6295C21.0236 92.548 21.0236 92.4665 21.0236 92.3826C20.9422 92.3826 20.8607 92.3826 20.7767 92.3826C20.7767 92.3011 20.7767 92.2196 20.7767 92.1357C20.6952 92.1357 20.6138 92.1357 20.5298 92.1357C20.5298 92.0542 20.5298 91.9727 20.5298 91.8887C20.4483 91.8887 20.3668 91.8887 20.2829 91.8887C20.2829 91.8073 20.2829 91.7258 20.2829 91.6418C20.2014 91.6418 20.1199 91.6418 20.036 91.6418C20.036 91.5603 20.036 91.4789 20.036 91.3949C19.9545 91.3949 19.873 91.3949 19.789 91.3949C19.6106 91.2179 19.6106 91.2179 19.4032 90.9705C18.9873 90.4793 18.5581 90.0026 18.1228 89.5285C17.9371 89.2961 17.9371 89.2961 17.9371 89.0492C17.8557 89.0492 17.7742 89.0492 17.6902 89.0492C17.45 88.7878 17.45 88.7878 17.1809 88.4473C17.0468 88.2797 17.0468 88.2797 16.9099 88.1087C16.7025 87.8146 16.7025 87.8146 16.7025 87.5676C16.6211 87.5676 16.5396 87.5676 16.4556 87.5676C16.2233 87.2687 16.0061 86.9688 15.792 86.6571C15.7266 86.563 15.6613 86.4689 15.5939 86.3719C15.3862 86.0717 15.1799 85.7704 14.9741 85.4688C14.9086 85.3732 14.843 85.2776 14.7755 85.1791C13.9614 83.9884 13.1911 82.7879 12.5049 81.5181C12.4388 81.3962 12.4388 81.3962 12.3715 81.2718C12.0398 80.6572 11.7153 80.0391 11.3937 79.4192C11.3517 79.3388 11.3097 79.2583 11.2664 79.1753C8.89556 74.6165 7.38334 69.7194 6.68681 64.6349C6.6672 64.4926 6.6476 64.3504 6.6274 64.2039C6.56431 63.7205 6.50749 63.2367 6.45532 62.7521C6.44425 62.6495 6.43318 62.5469 6.42177 62.4412C6.21537 60.4569 6.1698 58.4844 6.17621 56.4903C6.17753 55.9996 6.17621 55.5089 6.17464 55.0182C6.1736 53.2196 6.23108 51.4505 6.45532 49.6653C6.47334 49.5179 6.49137 49.3706 6.50993 49.2187C6.5588 48.847 6.61308 48.4769 6.67137 48.1066C6.69208 47.9745 6.71279 47.8424 6.73413 47.7063C7.08226 45.5659 7.52732 43.4495 8.25562 41.4045C8.40196 40.9926 8.52407 40.5783 8.63915 40.1567C9.2249 38.0233 10.0984 35.9509 11.1338 33.9977C11.2896 33.7022 11.442 33.405 11.5944 33.1076C13.1031 30.1755 14.8818 27.4498 16.9085 24.8497C17.0933 24.612 17.2764 24.3729 17.4573 24.1321C17.5342 24.0303 17.611 23.9284 17.6902 23.8235C17.7564 23.7348 17.8226 23.6462 17.8908 23.5549C17.9469 23.4933 18.0029 23.4317 18.0606 23.3682C18.1421 23.3682 18.2236 23.3682 18.3075 23.3682C18.3381 23.3001 18.3686 23.232 18.4001 23.1618C18.5844 22.8186 18.8059 22.531 19.0483 22.2262C19.1349 22.1161 19.2214 22.0059 19.3106 21.8925C19.4252 21.7674 19.4252 21.7674 19.5421 21.6398C19.6236 21.6398 19.7051 21.6398 19.789 21.6398C19.789 21.5583 19.789 21.4768 19.789 21.3928C19.8705 21.3928 19.952 21.3928 20.036 21.3928C20.0627 21.326 20.0894 21.2592 20.117 21.1903C20.3403 20.7982 20.6431 20.503 20.9619 20.1891C21.0235 20.1266 21.0851 20.064 21.1486 19.9996C21.6097 19.5409 21.6097 19.5409 21.8879 19.5409C21.8879 19.4595 21.8879 19.378 21.8879 19.294C21.9694 19.294 22.0508 19.294 22.1348 19.294C22.1348 19.2125 22.1348 19.1311 22.1348 19.0471C22.2163 19.0471 22.2978 19.0471 22.3817 19.0471C22.3817 18.9656 22.3817 18.8841 22.3817 18.8002C22.4632 18.8002 22.5447 18.8002 22.6286 18.8002C22.6286 18.7187 22.6286 18.6372 22.6286 18.5533C22.7101 18.5533 22.7916 18.5533 22.8756 18.5533C22.8756 18.4718 22.8756 18.3903 22.8756 18.3063C23.0845 18.1132 23.3022 17.9294 23.5237 17.7508C23.644 17.6527 23.7644 17.5547 23.8883 17.4537C24.1656 17.2461 24.4122 17.0864 24.7275 16.9483C24.7275 16.8668 24.7275 16.7853 24.7275 16.7014C24.9889 16.4612 24.9889 16.4612 25.3293 16.1921C25.4411 16.1026 25.5528 16.0132 25.6679 15.921C25.9621 15.7137 25.9621 15.7137 26.209 15.7137C26.209 15.6322 26.209 15.5507 26.209 15.4667C26.8771 14.9729 26.8771 14.9729 27.1967 14.9729C27.1967 14.8914 27.1967 14.8099 27.1967 14.726C27.4553 14.5242 27.7125 14.3381 27.9837 14.155C28.0955 14.0772 28.0955 14.0772 28.2094 13.9978C28.7689 13.6148 28.7689 13.6148 29.0486 13.6148C29.0486 13.5334 29.0486 13.4519 29.0486 13.3679C29.3302 13.1583 29.6109 12.9643 29.9051 12.7738C29.9904 12.7178 30.0757 12.6618 30.1635 12.6041C30.6747 12.2712 31.191 11.9587 31.7295 11.6718C32.086 11.4749 32.4298 11.2604 32.7755 11.0453C34.185 10.1752 35.6027 9.40301 37.1044 8.70536C37.651 8.45065 38.188 8.17949 38.7248 7.90479C39.4358 7.54327 40.1538 7.24003 40.9032 6.96437C41.2405 6.83617 41.5626 6.69352 41.8885 6.53901C43.3153 5.87692 44.8161 5.33503 46.3133 4.85494C46.6208 4.75305 46.9245 4.64612 47.2286 4.53471C49.5108 3.70366 51.8552 3.10107 54.2223 2.56468C54.5327 2.49128 54.841 2.41086 55.1498 2.33123C56.1136 2.08943 57.0866 1.89751 58.0618 1.70863C58.1593 1.68972 58.2567 1.67082 58.3572 1.65134C60.9405 1.15289 63.5342 0.80209 66.1484 0.512602C66.2372 0.502642 66.326 0.492682 66.4174 0.482419C66.9802 0.419857 67.5433 0.363152 68.1072 0.311165C68.3299 0.290587 68.5526 0.269355 68.7752 0.247566C71.5065 -0.0133119 74.237 -0.00396175 76.9781 0.00200197Z" fill="#FE6E3C"/>
<path d="M85.347 35.2217C85.4473 35.2292 85.5476 35.2366 85.6509 35.2443C86.378 35.2987 87.1049 35.3558 87.8317 35.4146C87.9302 35.4225 88.0288 35.4304 88.1303 35.4386C88.4067 35.4609 88.683 35.4842 88.9592 35.5077C89.1173 35.521 89.2753 35.5343 89.4382 35.548C89.7916 35.5921 89.7916 35.5921 89.9151 35.7156C89.9274 35.8884 89.9312 36.0618 89.9315 36.235C89.9317 36.3443 89.932 36.4535 89.9323 36.5661C89.9317 36.6852 89.9311 36.8043 89.9305 36.927C89.93 37.0508 89.9295 37.1746 89.929 37.3021C89.9168 38.9621 89.8207 40.6043 89.6692 42.2574C89.6534 42.4303 89.6376 42.6031 89.6218 42.776C89.6099 42.9064 89.6099 42.9064 89.5977 43.0394C89.3932 45.3043 89.2868 47.5749 89.1746 49.8459C89.1672 49.9942 89.1598 50.1425 89.1522 50.2953C89.1385 50.5731 89.125 50.851 89.1118 51.1289C89.0744 51.8923 89.0203 52.6526 88.9543 53.4141C88.923 53.7939 88.9044 54.173 88.8927 54.5539C88.888 54.6917 88.8834 54.8295 88.8787 54.9715C88.8744 55.1103 88.8701 55.2491 88.8657 55.3921C88.8398 56.2206 88.8091 57.0467 88.746 57.8733C88.655 59.0897 88.608 60.308 88.557 61.5265C88.5489 61.7164 88.5489 61.7164 88.5407 61.9101C88.4602 63.8115 88.3946 65.7129 88.3523 67.6157C88.3309 68.55 88.2966 69.4823 88.2488 70.4157C88.1765 71.8478 88.1494 73.28 88.1249 74.7136C88.1162 75.2123 88.1072 75.711 88.0979 76.2096C88.0955 76.3378 88.0931 76.466 88.0906 76.598C88.0737 77.4427 88.0481 78.2869 88.0183 79.1312C87.928 81.7016 87.8957 84.2719 87.8703 86.8436C87.869 86.9691 87.8677 87.0946 87.8664 87.2239C87.7611 97.6051 87.774 107.989 87.8703 118.804C87.8721 119.015 87.8721 119.015 87.8739 119.23C87.8989 122.101 87.9342 124.971 88.0189 127.842C88.0665 129.461 88.0909 131.08 88.1111 132.7C88.148 135.577 88.2098 138.453 88.302 141.33C88.31 141.58 88.3179 141.83 88.3257 142.08C88.3743 143.603 88.4261 145.124 88.53 146.645C88.5776 147.406 88.5969 148.167 88.6187 148.929C88.6619 150.349 88.6619 150.349 88.7422 151.768C88.7927 152.489 88.8181 153.207 88.8377 153.929C88.8863 155.689 88.9839 157.443 89.1049 159.199C89.1171 159.377 89.1171 159.377 89.1296 159.559C89.1624 160.037 89.1953 160.514 89.2282 160.991C89.4237 163.839 89.5835 166.689 89.6573 169.543C89.6672 169.884 89.6814 170.224 89.6971 170.565C89.703 170.745 89.7088 170.925 89.7144 171.105C89.7205 171.252 89.7265 171.399 89.7328 171.55C89.6681 171.892 89.6681 171.892 89.4241 172.111C88.9464 172.305 88.4757 172.418 87.9706 172.517C87.8668 172.538 87.763 172.559 87.6561 172.581C84.8385 173.133 81.9806 173.148 79.119 173.143C78.6645 173.142 78.2101 173.143 77.7557 173.144C75.5798 173.145 73.4383 173.096 71.2803 172.795C71.0477 172.763 71.0477 172.763 70.8104 172.731C60.9881 171.361 60.9881 171.361 59.9142 170.287C59.7749 169.484 59.7915 168.715 59.8293 167.903C59.8351 167.764 59.8409 167.625 59.8469 167.482C59.8818 166.687 59.9248 165.891 59.9735 165.096C59.9949 164.746 60.0163 164.395 60.0376 164.045C60.0431 163.956 60.0485 163.867 60.0541 163.775C60.1606 162.007 60.2071 160.24 60.2445 158.47C60.2662 157.447 60.2892 156.425 60.3463 155.403C60.4068 154.314 60.4308 153.224 60.455 152.134C60.4924 150.446 60.5455 148.76 60.6314 147.074C60.9414 140.951 61.0474 134.819 61.1066 128.689C61.1105 128.296 61.1144 127.904 61.1184 127.511C61.1194 127.413 61.1204 127.315 61.1214 127.214C61.1365 125.764 61.1653 124.313 61.2013 122.863C61.2821 119.597 61.3133 116.332 61.338 113.066C61.3405 112.737 61.343 112.408 61.3456 112.079C61.424 102.019 61.4401 91.958 61.3417 81.8975C61.3405 81.7696 61.3393 81.6417 61.338 81.5099C61.3128 78.8637 61.2755 76.2201 61.1777 73.5756C61.1487 72.7838 61.1293 71.992 61.1141 71.1998C61.1117 71.078 61.1094 70.9561 61.1069 70.8306C61.0978 70.3469 61.0892 69.8633 61.0806 69.3796C61.0563 68.0289 61.0227 66.6798 60.9626 65.3302C60.9069 64.0747 60.879 62.8205 60.861 61.5641C60.8154 58.5246 60.7172 55.487 60.613 52.4491C60.6011 52.1035 60.5895 51.758 60.5779 51.4124C60.4981 49.0432 60.4051 46.676 60.2735 44.3091C60.1866 42.745 60.1266 41.1869 60.1457 39.62C60.1469 39.4273 60.148 39.2345 60.149 39.0418C60.1516 38.5915 60.1558 38.1412 60.1611 37.6909C60.9813 37.2954 61.7741 36.9649 62.6612 36.7573C62.7663 36.732 62.8714 36.7067 62.9797 36.6806C65.4243 36.1087 67.9211 35.7904 70.4083 35.4687C70.5131 35.455 70.6179 35.4413 70.7258 35.4272C71.3597 35.3458 71.9941 35.2794 72.6306 35.2217C72.7505 35.2106 72.8704 35.1995 72.9939 35.188C77.1099 34.8191 81.2306 34.9151 85.347 35.2217Z" fill="#FE6E3C"/>
</svg>
